<svg width="48" height="54" viewBox="0 0 48 54" fill="none" xmlns="http://www.w3.org/2000/svg">
<mask id="mask0_44_390" style="mask-type:luminance" maskUnits="userSpaceOnUse" x="0" y="-1" width="55" height="55">
<path fill-rule="evenodd" clip-rule="evenodd" d="M0 -1H55V54H0V-1Z" fill="white"/>
</mask>
<g mask="url(#mask0_44_390)">
<path fill-rule="evenodd" clip-rule="evenodd" d="M13.8774 26.5248H11.795C11.7911 26.5248 11.7872 26.5248 11.7833 26.5247C11.7794 26.5247 11.7755 26.5246 11.7716 26.5244C11.1902 26.5048 10.6158 26.3377 10.0484 26.023C9.60636 25.7779 9.24724 25.4735 8.97103 25.1098L7.40784 25.1099C7.21648 25.1099 7.05314 25.0422 6.91782 24.9069C6.7825 24.7716 6.71484 24.6082 6.71484 24.4169C6.71484 24.2255 6.7825 24.0622 6.91782 23.9269C7.05314 23.7915 7.21648 23.7239 7.40784 23.7239L8.36625 23.7239C8.30936 23.4359 8.28091 23.1274 8.28091 22.7987C8.28091 21.9804 8.5433 21.3219 9.06807 20.8231C9.53695 20.3775 10.1105 20.1476 10.7886 20.1335C11.4547 20.1197 12.028 20.3162 12.5084 20.7232C13.0528 21.1843 13.3251 21.7942 13.3251 22.5528C13.3251 23.6748 12.7533 24.442 11.6098 24.8545C11.4492 24.9124 11.2883 24.9605 11.1271 24.9988C11.3566 25.0834 11.5834 25.13 11.8075 25.1388H13.8774C14.0687 25.1388 14.2321 25.2065 14.3674 25.3418C14.5027 25.4771 14.5704 25.6404 14.5704 25.8318C14.5704 26.0232 14.5027 26.1865 14.3674 26.3218C14.2321 26.4572 14.0687 26.5248 13.8774 26.5248ZM10.132 23.724L9.80672 23.7239C9.71422 23.4525 9.66797 23.1441 9.66797 22.7986C9.66797 22.3769 9.78664 22.0533 10.024 21.8277C10.2334 21.6286 10.4982 21.5258 10.8184 21.5191C11.1349 21.5126 11.4 21.5998 11.6136 21.7807C11.8313 21.9651 11.9401 22.2224 11.9401 22.5528C11.9401 23.0257 11.6736 23.3584 11.1406 23.5506C10.8019 23.6728 10.4657 23.7306 10.132 23.724Z" fill="#4B38B3"/>
<path fill-rule="evenodd" clip-rule="evenodd" d="M27.8303 6.99707C29.5709 6.99707 31.0565 7.61243 32.2873 8.84316C33.518 10.0739 34.1333 11.5595 34.1333 13.3001C34.1333 15.0406 33.518 16.5263 32.2873 17.757C31.0565 18.9877 29.5709 19.6031 27.8303 19.6031C26.0898 19.6031 24.6042 18.9877 23.3734 17.757C22.1427 16.5263 21.5273 15.0406 21.5273 13.3001C21.5273 11.5595 22.1427 10.0739 23.3734 8.84316C24.6042 7.61243 26.0898 6.99707 27.8303 6.99707ZM27.8311 8.38306C26.4732 8.38306 25.3143 8.8631 24.3542 9.82319C23.3941 10.7833 22.9141 11.9422 22.9141 13.3001C22.9141 14.6579 23.3941 15.8168 24.3542 16.7769C25.3143 17.737 26.4732 18.2171 27.8311 18.2171C29.1889 18.2171 30.3478 17.737 31.3079 16.7769C32.268 15.8168 32.7481 14.6579 32.7481 13.3001C32.7481 11.9422 32.268 10.7833 31.3079 9.82319C30.3478 8.8631 29.1889 8.38306 27.8311 8.38306Z" fill="#6ADA7D"/>
<path fill-rule="evenodd" clip-rule="evenodd" d="M31.8807 40.453V43.2321C31.8807 44.1055 32.59 44.8147 33.4658 44.8147H35.9672V40.6524C37.0652 40.0668 38.0636 39.321 38.9357 38.4489C40.6344 36.7502 41.851 34.5719 42.3634 32.136H42.9212C44.0898 32.136 45.039 31.1869 45.039 30.0183V27.9334C45.039 26.7647 44.0898 25.8155 42.9212 25.8155H42.0832C41.1694 22.8244 39.1729 20.3053 36.5503 18.7126C36.5503 18.7126 36.3862 15.2118 38.9507 13.2101C36.0152 12.9147 32.9787 13.316 31.2572 16.8751L26.0878 16.8877C22.5995 16.8877 19.4418 18.3012 17.1574 20.5856C14.8705 22.8725 13.457 26.0301 13.457 29.5185C13.457 34.1326 15.9307 38.1688 19.6261 40.3723V43.232C19.6261 44.1054 20.3353 44.8147 21.2112 44.8147H23.7126V40.453" fill="white"/>
<path fill-rule="evenodd" clip-rule="evenodd" d="M23.8297 41.2422C24.5603 41.3836 25.3082 41.4542 26.0733 41.4542H29.9908C30.5847 41.4542 31.1759 41.4105 31.7643 41.323C31.9536 41.2948 32.1251 41.3377 32.2789 41.4516C32.4326 41.5656 32.5236 41.7172 32.5517 41.9065C32.5799 42.0957 32.537 42.2673 32.423 42.421C32.3091 42.5748 32.1575 42.6657 31.9682 42.6939C31.3123 42.7915 30.6531 42.8402 29.9908 42.8402H26.0733C25.2196 42.8402 24.384 42.7612 23.5665 42.603C23.3786 42.5667 23.2311 42.4692 23.1239 42.3107C23.0168 42.1521 22.9814 41.9789 23.0177 41.791C23.0352 41.7008 23.0692 41.6173 23.1199 41.5406C23.1705 41.464 23.2339 41.3999 23.3101 41.3484C23.3862 41.297 23.4693 41.2621 23.5593 41.2437C23.6494 41.2253 23.7395 41.2248 23.8297 41.2422Z" fill="#4B38B3"/>
<path fill-rule="evenodd" clip-rule="evenodd" d="M24.3915 44.8147V40.453C24.3915 40.2616 24.3239 40.0983 24.1885 39.963C24.0532 39.8276 23.8899 39.76 23.6985 39.76C23.5072 39.76 23.3438 39.8276 23.2085 39.963C23.0732 40.0983 23.0055 40.2616 23.0055 40.453V44.1217H21.1971C20.9506 44.1217 20.7402 44.0347 20.5659 43.8606C20.392 43.6869 20.305 43.4773 20.305 43.232V40.3722C20.305 40.2502 20.2749 40.1361 20.2146 40.03C20.1543 39.9239 20.0718 39.8395 19.9669 39.777C18.1887 38.7167 16.7801 37.2915 15.7411 35.5014C14.671 33.6579 14.136 31.6635 14.136 29.5184C14.136 27.8987 14.4486 26.3497 15.0739 24.8714C15.678 23.4431 16.5312 22.1778 17.6334 21.0756C18.7345 19.9745 19.999 19.1221 21.427 18.5183C22.9052 17.8932 24.4547 17.5807 26.0754 17.5807L31.2449 17.568C31.3775 17.5677 31.4999 17.5323 31.6121 17.4617C31.7243 17.3911 31.8093 17.2961 31.8671 17.1768C32.5737 15.7158 33.5781 14.7386 34.8803 14.2452C35.5759 13.9816 36.4021 13.8429 37.359 13.8291C36.7822 14.5886 36.3633 15.4938 36.1022 16.5449C35.8996 17.3607 35.8135 18.0941 35.8441 18.745C35.8494 18.8602 35.8816 18.9673 35.9405 19.0665C35.9993 19.1656 36.078 19.2451 36.1766 19.3049C37.4238 20.0624 38.4976 21.0163 39.3978 22.1667C40.3078 23.3296 40.9773 24.6134 41.4064 26.018C41.4509 26.1637 41.5344 26.2819 41.6569 26.3725C41.7794 26.4632 41.9168 26.5085 42.0692 26.5085L42.9072 26.5085C43.3001 26.5085 43.6358 26.6477 43.9143 26.9262C44.1928 27.2047 44.332 27.5404 44.332 27.9333V30.0183C44.332 30.4112 44.1928 30.7469 43.9143 31.0253C43.6358 31.3038 43.3001 31.443 42.9072 31.443H42.3494C42.1855 31.443 42.0399 31.4946 41.9127 31.5979C41.7854 31.7012 41.7049 31.833 41.6712 31.9933C41.1871 34.2948 40.1072 36.2833 38.4316 37.9589C37.5941 38.7964 36.6592 39.4904 35.627 40.041C35.5141 40.1012 35.4248 40.1862 35.3589 40.2959C35.2931 40.4056 35.2602 40.5245 35.2602 40.6524V44.1217H33.4518C33.2052 44.1217 32.9948 44.0347 32.8206 43.8606C32.6466 43.6869 32.5597 43.4773 32.5597 43.232V40.453C32.5597 40.2616 32.492 40.0983 32.3567 39.963C32.2214 39.8276 32.058 39.76 31.8667 39.76C31.6753 39.76 31.512 39.8276 31.3767 39.963C31.2413 40.0983 31.1737 40.2616 31.1737 40.453V43.232C31.1737 43.8604 31.3961 44.3967 31.841 44.8412C32.2859 45.2855 32.8228 45.5077 33.4518 45.5077H35.9532C36.1445 45.5077 36.3079 45.44 36.4432 45.3047C36.5785 45.1694 36.6462 45.0061 36.6462 44.8147V41.0607C37.6552 40.4808 38.577 39.7735 39.4117 38.9389C41.1468 37.2038 42.3096 35.1672 42.9002 32.829H42.9072C43.6829 32.829 44.3452 32.5545 44.8943 32.0054C45.4434 31.4563 45.718 30.794 45.718 30.0183V27.9333C45.718 27.1576 45.4434 26.4953 44.8943 25.9462C44.3452 25.3971 43.6829 25.1225 42.9072 25.1225H42.5718C42.0925 23.7441 41.3983 22.4742 40.4893 21.3126C39.5656 20.1321 38.4781 19.1371 37.2267 18.3275C37.2411 17.896 37.3147 17.4132 37.4474 16.879C37.7816 15.5332 38.4202 14.4923 39.3631 13.7563C39.4355 13.6998 39.4944 13.6315 39.5397 13.5516C39.585 13.4716 39.6133 13.386 39.6245 13.2948C39.6357 13.2036 39.6291 13.1137 39.6046 13.0252C39.5801 12.9366 39.5395 12.8561 39.483 12.7837C39.4248 12.7091 39.3543 12.649 39.2715 12.6033C39.1887 12.5576 39.1002 12.53 39.0061 12.5205C37.1696 12.3358 35.6306 12.4786 34.3891 12.9491C32.8653 13.5266 31.6753 14.6046 30.8192 16.1831L26.0721 16.1947C24.2662 16.1947 22.5379 16.5437 20.8872 17.2417C19.2932 17.9157 17.8819 18.867 16.6534 20.0955C15.4237 21.3252 14.4717 22.7372 13.7974 24.3315C13.0991 25.9823 12.75 27.7113 12.75 29.5184C12.75 31.9123 13.3475 34.1385 14.5424 36.1972C15.635 38.0796 17.0939 39.6003 18.919 40.7594V43.232C18.919 43.8604 19.1415 44.3967 19.5864 44.8412C20.0312 45.2855 20.5681 45.5077 21.1971 45.5077H23.6985C23.8899 45.5077 24.0532 45.44 24.1885 45.3047C24.3239 45.1694 24.3915 45.0061 24.3915 44.8147Z" fill="#4B38B3"/>
<path fill-rule="evenodd" clip-rule="evenodd" d="M23.5987 19.6082C24.2152 19.3032 25.5858 19.1509 27.7106 19.1514C29.8088 19.1518 31.2461 19.2943 32.0224 19.5787L32.0226 19.5787C32.2022 19.6446 32.3323 19.7643 32.4128 19.9379C32.4933 20.1115 32.5006 20.2882 32.4347 20.4679C32.4031 20.5541 32.3562 20.6311 32.294 20.6987C32.2317 20.7663 32.1589 20.8194 32.0755 20.8581C31.9922 20.8967 31.9046 20.918 31.8128 20.9218C31.721 20.9256 31.632 20.9117 31.5457 20.8801L31.5456 20.88C31.4145 20.832 31.1586 20.7795 30.778 20.7223C29.9584 20.5993 28.9359 20.5376 27.7103 20.5374C26.4885 20.5371 25.5147 20.598 24.7887 20.72C24.474 20.773 24.2821 20.8164 24.2133 20.8505C24.0418 20.9354 23.8654 20.9472 23.6841 20.8859C23.5028 20.8246 23.3697 20.7082 23.2849 20.5367C23.2 20.3652 23.1882 20.1888 23.2495 20.0075C23.3108 19.8262 23.4271 19.6931 23.5987 19.6082Z" fill="#4B38B3"/>
<path fill-rule="evenodd" clip-rule="evenodd" d="M35.9441 22.1826C35.1163 22.1826 34.4453 22.8536 34.4453 23.6814C34.4453 24.5091 35.1163 25.1801 35.9441 25.1801C36.7718 25.1801 37.4428 24.5091 37.4428 23.6814C37.4428 22.8536 36.7718 22.1826 35.9441 22.1826Z" fill="#4B38B3"/>
</g>
</svg>
