<svg width="58" height="57" viewBox="0 0 58 57" fill="none" xmlns="http://www.w3.org/2000/svg">
<path fill-rule="evenodd" clip-rule="evenodd" d="M28.8756 12.3574C31.0482 12.3574 33.1268 12.7772 35.1116 13.6166C37.0283 14.4273 38.7256 15.5716 40.2036 17.0496C41.6815 18.5275 42.8258 20.2248 43.6365 22.1415C44.476 24.1263 44.8957 26.205 44.8957 28.3776C44.8957 30.5501 44.476 32.6288 43.6365 34.6136C42.8258 36.5303 41.6815 38.2276 40.2036 39.7055C38.7256 41.1835 37.0283 42.3278 35.1116 43.1385C33.1268 43.9779 31.0482 44.3977 28.8756 44.3977C26.703 44.3977 24.6244 43.9779 22.6396 43.1385C20.7229 42.3278 19.0256 41.1835 17.5476 39.7055C16.0697 38.2276 14.9254 36.5303 14.1147 34.6136C13.2752 32.6288 12.8555 30.5501 12.8555 28.3776C12.8555 26.205 13.2752 24.1263 14.1147 22.1415C14.9254 20.2248 16.0697 18.5275 17.5476 17.0496C19.0256 15.5716 20.7229 14.4273 22.6396 13.6166C24.6244 12.7772 26.703 12.3574 28.8756 12.3574ZM28.8766 13.7627C26.894 13.7627 24.9978 14.1454 23.188 14.9109C21.4396 15.6504 19.891 16.6945 18.5423 18.0433C17.1936 19.392 16.1494 20.9405 15.4099 22.689C14.6445 24.4988 14.2617 26.395 14.2617 28.3776C14.2617 30.3602 14.6445 32.2563 15.4099 34.0661C16.1494 35.8146 17.1935 37.3631 18.5423 38.7119C19.891 40.0606 21.4396 41.1047 23.188 41.8442C24.9978 42.6097 26.894 42.9924 28.8766 42.9924C30.8592 42.9924 32.7554 42.6097 34.5652 41.8442C36.3136 41.1047 37.8621 40.0606 39.2109 38.7119C40.5596 37.3631 41.6037 35.8146 42.3432 34.0661C43.1087 32.2563 43.4914 30.3601 43.4914 28.3776C43.4914 26.395 43.1087 24.4988 42.3432 22.689C41.6037 20.9405 40.5596 19.392 39.2109 18.0433C37.8621 16.6945 36.3136 15.6504 34.5652 14.9109C32.7554 14.1454 30.8592 13.7627 28.8766 13.7627Z" fill="#6ADA7D"/>
<path fill-rule="evenodd" clip-rule="evenodd" d="M28.8754 6.5957C31.8295 6.5957 34.6557 7.16638 37.3541 8.30772C39.9601 9.40998 42.2679 10.9659 44.2774 12.9755C46.287 14.985 47.8429 17.2928 48.9451 19.8988C50.0865 22.5973 50.6571 25.4235 50.6571 28.3775C50.6571 31.3315 50.0865 34.1578 48.9451 36.8562C47.8429 39.4622 46.287 41.77 44.2774 43.7795C42.2679 45.7891 39.9601 47.345 37.3541 48.4472C34.6557 49.5885 31.8294 50.1592 28.8754 50.1592C25.9214 50.1592 23.0952 49.5885 20.3968 48.4472C17.7908 47.345 15.483 45.7891 13.4734 43.7795C11.4639 41.7699 9.90799 39.4622 8.80575 36.8562C7.66442 34.1577 7.09375 31.3315 7.09375 28.3775C7.09375 25.4235 7.66442 22.5973 8.80575 19.8989C9.90799 17.2929 11.4639 14.9851 13.4734 12.9755C15.483 10.966 17.7908 9.41006 20.3968 8.30781C22.8805 7.25729 25.4725 6.69024 28.1728 6.60666V6.5957H28.8754ZM28.8764 8.00098L28.947 8.00098C31.6854 8.00998 34.3057 8.54361 36.8076 9.60186C39.2454 10.6329 41.4044 12.0887 43.2847 13.969C45.1651 15.8494 46.6208 18.0084 47.6519 20.4462C48.7192 22.9696 49.2528 25.6134 49.2528 28.3774C49.2528 31.1415 48.7192 33.7852 47.6519 36.3086C46.6208 38.7463 45.1651 40.9054 43.2847 42.7857C41.4044 44.6661 39.2453 46.1218 36.8076 47.1528C34.2842 48.2202 31.6404 48.7538 28.8764 48.7538C26.1124 48.7538 23.4687 48.2202 20.9452 47.1528C18.5075 46.1218 16.3484 44.6661 14.4681 42.7857C12.5878 40.9054 11.1321 38.7463 10.101 36.3086C9.03366 33.7852 8.5 31.1414 8.5 28.3774C8.5 25.6134 9.03366 22.9696 10.101 20.4462C11.1321 18.0085 12.5878 15.8494 14.4681 13.9691C16.3484 12.0887 18.5075 10.633 20.9452 9.60196C23.4686 8.53464 26.1124 8.00098 28.8764 8.00098Z" fill="#25A0E2"/>
<mask id="mask0_44_358" style="mask-type:luminance" maskUnits="userSpaceOnUse" x="0" y="0" width="58" height="57">
<path fill-rule="evenodd" clip-rule="evenodd" d="M0.5 0H57.5V57H0.5V0Z" fill="white"/>
</mask>
<g mask="url(#mask0_44_358)">
</g>
</svg>
