<svg width="40" height="32" viewBox="0 0 40 32" fill="none" xmlns="http://www.w3.org/2000/svg">
<path fill-rule="evenodd" clip-rule="evenodd" d="M6.37427 0.483398H27.0197C28.0977 0.483399 29.0178 0.864424 29.7799 1.62647C30.542 2.38854 30.9231 3.30861 30.9231 4.38667C30.9231 5.46474 30.542 6.38481 29.7799 7.14687C29.2634 7.66335 28.6743 8.00481 28.0127 8.17125C28.7145 8.91481 29.0655 9.80389 29.0655 10.8385C29.0655 11.8254 28.7461 12.68 28.1074 13.4021C29.0295 13.4796 29.8278 13.8556 30.5023 14.5301C31.2644 15.2921 31.6455 16.2122 31.6455 17.2903C31.6455 18.3683 31.2644 19.2884 30.5023 20.0505C29.8278 20.725 29.0295 21.1009 28.1075 21.1785C28.7461 21.9005 29.0655 22.755 29.0655 23.742C29.0655 24.82 28.6844 25.7401 27.9223 26.5022C27.1602 27.2642 26.2401 27.6452 25.1621 27.6452H4.51667C3.43861 27.6452 2.51853 27.2642 1.75644 26.5022C0.994334 25.7401 0.613281 24.82 0.613281 23.742C0.613281 22.6639 0.994334 21.7438 1.75644 20.9818C2.43096 20.3073 3.22925 19.9313 4.15129 19.8538C3.51262 19.1317 3.19328 18.2772 3.19328 17.2903C3.19328 16.3033 3.51265 15.4488 4.15139 14.7267C3.2293 14.6492 2.43098 14.2732 1.75644 13.5987C0.994334 12.8366 0.613282 11.9165 0.613281 10.8385C0.613281 9.7604 0.994334 8.84034 1.75644 8.07827C2.27295 7.56179 2.86203 7.22033 3.52369 7.0539C2.82181 6.31034 2.47088 5.42126 2.47088 4.38667C2.47088 3.30861 2.85193 2.38854 3.61404 1.62647C4.37613 0.864423 5.29621 0.483398 6.37427 0.483398ZM6.37274 1.83813C5.6688 1.83814 5.06806 2.08689 4.57052 2.5844C4.07299 3.08191 3.82422 3.68262 3.82422 4.38654C3.82422 5.09046 4.07299 5.69117 4.57052 6.18868C5.06806 6.68619 5.6688 6.93495 6.37274 6.93495H27.0181C27.7221 6.93495 28.3228 6.68619 28.8204 6.18868C29.3179 5.69117 29.5667 5.09046 29.5667 4.38654C29.5667 3.68262 29.3179 3.08191 28.8204 2.5844C28.3228 2.08689 27.7221 1.83814 27.0181 1.83813H6.37274ZM4.51728 8.29004C3.81333 8.29004 3.21259 8.5388 2.71505 9.03631C2.21752 9.53382 1.96875 10.1345 1.96875 10.8384C1.96875 11.5424 2.21752 12.1431 2.71505 12.6406C3.21259 13.1381 3.81333 13.3869 4.51728 13.3869H25.1627C25.8666 13.3869 26.4674 13.1381 26.9649 12.6406C27.4624 12.1431 27.7112 11.5424 27.7112 10.8384C27.7112 10.1345 27.4624 9.53382 26.9649 9.03631C26.4674 8.5388 25.8666 8.29004 25.1627 8.29004L4.51728 8.29004ZM27.7408 19.8388H7.0954C6.39145 19.8388 5.79071 19.59 5.29318 19.0925C4.79564 18.595 4.54688 17.9943 4.54688 17.2903C4.54688 16.5864 4.79564 15.9857 5.29318 15.4882C5.79071 14.9907 6.39145 14.7419 7.0954 14.7419H27.7408C28.4447 14.7419 29.0455 14.9907 29.543 15.4882C30.0406 15.9857 30.2893 16.5864 30.2893 17.2903C30.2893 17.9943 30.0406 18.595 29.543 19.0925C29.0455 19.59 28.4447 19.8388 27.7408 19.8388ZM4.51728 21.1936H25.1627C25.8666 21.1936 26.4674 21.4424 26.9649 21.9399C27.4624 22.4374 27.7112 23.0381 27.7112 23.742C27.7112 24.4459 27.4624 25.0466 26.9649 25.5441C26.4674 26.0417 25.8666 26.2904 25.1627 26.2904H4.51728C3.81333 26.2904 3.21258 26.0417 2.71505 25.5441C2.21752 25.0466 1.96875 24.4459 1.96875 23.742C1.96875 23.0381 2.21752 22.4374 2.71505 21.9399C3.21259 21.4424 3.81333 21.1936 4.51728 21.1936Z" fill="#4B38B3"/>
<path fill-rule="evenodd" clip-rule="evenodd" d="M25.162 3.74121C32.6447 3.74121 38.7106 9.80721 38.7106 17.2899C38.7106 24.7726 32.6446 30.8385 25.162 30.8385C17.6792 30.8385 11.6133 24.7726 11.6133 17.2899C11.6133 9.80721 17.6793 3.74121 25.162 3.74121V3.74121Z" fill="white"/>
<path fill-rule="evenodd" clip-rule="evenodd" d="M25.1637 3.06445C27.0929 3.06445 28.9388 3.4372 30.7013 4.1827C32.4034 4.90262 33.9106 5.91879 35.223 7.23121C36.5354 8.54364 37.5516 10.0509 38.2715 11.753C39.0169 13.5155 39.3897 15.3614 39.3897 17.2906C39.3897 19.2198 39.0169 21.0657 38.2714 22.8282C37.5515 24.5303 36.5353 26.0375 35.2229 27.3499C33.9105 28.6623 32.4033 29.6785 30.7012 30.3984C28.9387 31.1439 27.0928 31.5166 25.1637 31.5166C23.2344 31.5166 21.3885 31.1439 19.626 30.3984C17.9239 29.6785 16.4166 28.6623 15.1042 27.3499C13.7918 26.0375 12.7756 24.5303 12.0557 22.8282C11.3102 21.0657 10.9375 19.2198 10.9375 17.2906C10.9375 15.3614 11.3102 13.5155 12.0557 11.7529C12.7757 10.0509 13.7918 8.54362 15.1043 7.23121C16.4167 5.91879 17.9239 4.90262 19.626 4.1827C21.3885 3.4372 23.2344 3.06445 25.1637 3.06445ZM25.1643 4.41943C23.4182 4.41944 21.7482 4.75651 20.1544 5.43065C18.6146 6.08194 17.2507 7.00151 16.0629 8.18936C14.875 9.37721 13.9555 10.741 13.3042 12.2809C12.63 13.8747 12.293 15.5447 12.293 17.2907C12.293 19.0368 12.63 20.7067 13.3042 22.3006C13.9554 23.8404 14.875 25.2042 16.0628 26.392C17.2507 27.5799 18.6145 28.4994 20.1543 29.1507C21.7482 29.8248 23.4182 30.1619 25.1643 30.1619C26.9103 30.1619 28.5802 29.8248 30.174 29.1507C31.7139 28.4994 33.0777 27.5798 34.2655 26.392C35.4534 25.2042 36.3729 23.8404 37.0242 22.3006C37.6984 20.7067 38.0354 19.0368 38.0354 17.2907C38.0354 15.5447 37.6984 13.8747 37.0242 12.2809C36.373 10.741 35.4534 9.37721 34.2655 8.18936C33.0777 7.00152 31.7139 6.08195 30.1741 5.43065C28.5803 4.75651 26.9103 4.41943 25.1643 4.41943Z" fill="#4B38B3"/>
<path fill-rule="evenodd" clip-rule="evenodd" d="M25.1642 7.42676C27.8881 7.42675 30.213 8.38969 32.1388 10.3156C34.0647 12.2414 35.0276 14.5663 35.0277 17.2902C35.0276 20.0141 34.0647 22.3389 32.1388 24.2648C30.2129 26.1907 27.8881 27.1536 25.1642 27.1536C22.4403 27.1536 20.1155 26.1907 18.1896 24.2648C16.2637 22.3389 15.3008 20.0141 15.3008 17.2902C15.3008 14.5663 16.2637 12.2414 18.1896 10.3156C20.1155 8.3897 22.4403 7.42676 25.1642 7.42676ZM25.1648 8.78149C22.8151 8.78149 20.8096 9.61216 19.1482 11.2735C17.4869 12.9348 16.6563 14.9403 16.6562 17.2901C16.6562 19.6398 17.4869 21.6453 19.1482 23.3066C20.8096 24.968 22.8151 25.7986 25.1648 25.7986C27.5145 25.7986 29.5201 24.968 31.1814 23.3066C32.8427 21.6453 33.6734 19.6398 33.6734 17.2901C33.6734 14.9403 32.8427 12.9348 31.1814 11.2735C29.5201 9.61216 27.5145 8.78149 25.1648 8.78149Z" fill="#6ADA7D"/>
</svg>
