<svg width="54" height="55" viewBox="0 0 54 55" fill="none" xmlns="http://www.w3.org/2000/svg">
<path fill-rule="evenodd" clip-rule="evenodd" d="M20.2031 16.0058V13.7477C20.2031 12.9732 20.4772 12.3118 21.0254 11.7637C21.5736 11.2155 22.2349 10.9414 23.0094 10.9414L30.9915 10.9414C31.766 10.9414 32.4274 11.2155 32.9756 11.7637C33.5237 12.3118 33.7978 12.9732 33.7978 13.7477V16.0583H32.3863V13.7477C32.3863 13.363 32.25 13.0343 31.9774 12.7618C31.7049 12.4892 31.3762 12.353 30.9915 12.353L23.0094 12.353C22.6247 12.353 22.2961 12.4892 22.0235 12.7618C21.751 13.0343 21.6147 13.363 21.6147 13.7477V16.0058H20.2031Z" fill="#6ADA7D"/>
<path fill-rule="evenodd" clip-rule="evenodd" d="M43.488 30.6602H9.98438V32.0717H43.488V30.6602Z" fill="#6ADA7D"/>
<path fill-rule="evenodd" clip-rule="evenodd" d="M23.7474 31.7458C23.7435 31.5537 23.673 31.3904 23.5358 31.2559C23.3986 31.1213 23.2339 31.0541 23.0417 31.0541C22.8468 31.0541 22.6805 31.123 22.5427 31.2608C22.4048 31.3986 22.3359 31.565 22.3359 31.7599V35.219C22.3359 35.4139 22.4048 35.5802 22.5427 35.718C22.6805 35.8558 22.8468 35.9247 23.0417 35.9247H30.9516C31.1465 35.9247 31.3128 35.8558 31.4507 35.718C31.5885 35.5802 31.6574 35.4139 31.6574 35.219V31.6023C31.6574 31.4074 31.5885 31.241 31.4507 31.1032C31.3128 30.9654 31.1465 30.8965 30.9516 30.8965C30.7567 30.8965 30.5903 30.9654 30.4525 31.1032C30.3147 31.241 30.2458 31.4074 30.2458 31.6023V34.5132H23.7475V31.7599C23.7475 31.7575 23.7475 31.7552 23.7475 31.7528C23.7474 31.7505 23.7474 31.7481 23.7474 31.7458Z" fill="#6ADA7D"/>
<path fill-rule="evenodd" clip-rule="evenodd" d="M44.3014 20.4694V38.1139C44.3014 39.4681 43.8222 40.6244 42.8636 41.5829C41.9051 42.5415 40.7488 43.0207 39.3946 43.0207H14.1881C12.8339 43.0207 11.6776 42.5415 10.719 41.5829C9.76051 40.6244 9.28125 39.4681 9.28125 38.1139V20.4694C9.28125 19.1152 9.76052 17.9588 10.719 17.0003C11.6776 16.0418 12.8339 15.5625 14.1881 15.5625H39.3946C40.7488 15.5625 41.9051 16.0418 42.8636 17.0003C43.8222 17.9588 44.3014 19.1152 44.3014 20.4694ZM42.8885 20.4694C42.8885 19.505 42.547 18.6814 41.8641 17.9985C41.1812 17.3156 40.3576 16.9741 39.3932 16.9741H14.1867C13.2223 16.9741 12.3987 17.3156 11.7158 17.9985C11.0329 18.6814 10.6914 19.505 10.6914 20.4694V38.1139C10.6914 39.0783 11.0329 39.902 11.7158 40.5849C12.3987 41.2678 13.2223 41.6092 14.1867 41.6092H39.3932C40.3576 41.6092 41.1812 41.2678 41.8641 40.5849C42.547 39.902 42.8885 39.0783 42.8885 38.1139V20.4694Z" fill="#5EA3CB"/>
<mask id="mask0_44_472" style="mask-type:luminance" maskUnits="userSpaceOnUse" x="0" y="0" width="54" height="55">
<path fill-rule="evenodd" clip-rule="evenodd" d="M0.0703125 0.470703H53.9303V54.3307H0.0703125V0.470703Z" fill="white"/>
</mask>
<g mask="url(#mask0_44_472)">
</g>
</svg>
